<svg width="19" height="19" viewBox="0 0 19 19" fill="none" xmlns="http://www.w3.org/2000/svg">
<path fill-rule="evenodd" clip-rule="evenodd" d="M0.791687 9.5C0.791687 4.69052 4.69054 0.791664 9.50002 0.791664C14.3095 0.791664 18.2084 4.69052 18.2084 9.5C18.2084 10.3668 17.7095 10.9302 17.1217 11.2708C16.5788 11.5853 15.8886 11.7579 15.2774 11.8902C15.0825 11.9324 14.8938 11.9709 14.7108 12.0083C14.2727 12.0977 13.8667 12.1805 13.4841 12.2918C12.9353 12.4514 12.6207 12.623 12.4676 12.7958L11.875 12.2708L12.4676 12.7958C12.2413 13.0513 12.0962 13.4159 12.0015 13.9134C11.934 14.2684 11.9025 14.6175 11.8683 14.996C11.8525 15.171 11.8361 15.3522 11.8154 15.5432C11.7571 16.079 11.6603 16.7362 11.3352 17.2602C11.1607 17.5414 10.9179 17.7909 10.5871 17.9641C10.2607 18.1349 9.89305 18.2083 9.50002 18.2083C4.69054 18.2083 0.791687 14.3095 0.791687 9.5ZM9.50002 2.375C5.56499 2.375 2.37502 5.56497 2.37502 9.5C2.37502 13.435 5.56499 16.625 9.50002 16.625C9.6968 16.625 9.80041 16.5887 9.85279 16.5613C9.90074 16.5362 9.94424 16.4988 9.98972 16.4255C10.1045 16.2405 10.182 15.9182 10.2413 15.3722C10.2556 15.241 10.2688 15.0946 10.283 14.939C10.3203 14.5281 10.3634 14.0523 10.4461 13.6177C10.5641 12.9969 10.7836 12.309 11.2824 11.7459C11.7481 11.2202 12.4356 10.9478 13.0419 10.7715C13.4909 10.6409 13.9969 10.5376 14.4593 10.4432C14.6277 10.4088 14.7904 10.3756 14.9424 10.3427C15.562 10.2086 16.0252 10.0762 16.328 9.90075C16.5858 9.75134 16.625 9.63976 16.625 9.5C16.625 5.56497 13.4351 2.375 9.50002 2.375ZM9.10419 5.54166C9.10419 4.44858 9.99027 3.5625 11.0834 3.5625C12.1764 3.5625 13.0625 4.44858 13.0625 5.54166C13.0625 6.63475 12.1764 7.52083 11.0834 7.52083C9.99027 7.52083 9.10419 6.63475 9.10419 5.54166ZM11.0834 5.14583C10.8647 5.14583 10.6875 5.32303 10.6875 5.54166C10.6875 5.7603 10.8647 5.9375 11.0834 5.9375C11.302 5.9375 11.4792 5.7603 11.4792 5.54166C11.4792 5.32303 11.302 5.14583 11.0834 5.14583ZM4.35419 7.125C4.35419 6.03192 5.24027 5.14583 6.33335 5.14583C7.42644 5.14583 8.31252 6.03192 8.31252 7.125C8.31252 8.21808 7.42644 9.10416 6.33335 9.10416C5.24027 9.10416 4.35419 8.21808 4.35419 7.125ZM6.33335 6.72916C6.11472 6.72916 5.93752 6.90637 5.93752 7.125C5.93752 7.34363 6.11472 7.52083 6.33335 7.52083C6.55199 7.52083 6.72919 7.34363 6.72919 7.125C6.72919 6.90637 6.55199 6.72916 6.33335 6.72916ZM4.75002 12.2708C4.75002 11.1778 5.63611 10.2917 6.72919 10.2917C7.82227 10.2917 8.70835 11.1778 8.70835 12.2708C8.70835 13.3639 7.82227 14.25 6.72919 14.25C5.63611 14.25 4.75002 13.3639 4.75002 12.2708ZM6.72919 11.875C6.51056 11.875 6.33335 12.0522 6.33335 12.2708C6.33335 12.4895 6.51056 12.6667 6.72919 12.6667C6.94782 12.6667 7.12502 12.4895 7.12502 12.2708C7.12502 12.0522 6.94782 11.875 6.72919 11.875Z" fill="#E94057"/>
</svg>
