<svg width="19" height="19" viewBox="0 0 19 19" fill="none" xmlns="http://www.w3.org/2000/svg">
<path fill-rule="evenodd" clip-rule="evenodd" d="M6.41693 2.02095C6.55103 1.75275 6.82516 1.58333 7.12502 1.58333H11.875C12.1749 1.58333 12.449 1.75275 12.5831 2.02095L13.5518 3.95833H16.2292C17.3223 3.95833 18.2084 4.84443 18.2084 5.93749V15.4375C18.2084 16.5306 17.3223 17.4167 16.2292 17.4167H2.77085C1.67779 17.4167 0.791687 16.5306 0.791687 15.4375V5.93749C0.791687 4.84443 1.67779 3.95833 2.77085 3.95833H5.44824L6.41693 2.02095ZM7.21846 3.95833H11.7816L11.3857 3.16666H7.6143L7.21846 3.95833ZM2.77085 5.54166C2.55224 5.54166 2.37502 5.71888 2.37502 5.93749V15.4375C2.37502 15.6561 2.55224 15.8333 2.77085 15.8333H16.2292C16.4478 15.8333 16.625 15.6561 16.625 15.4375V5.93749C16.625 5.71888 16.4478 5.54166 16.2292 5.54166H2.77085ZM5.54169 10.6875C5.54169 8.50136 7.31388 6.72916 9.50002 6.72916C11.6862 6.72916 13.4584 8.50136 13.4584 10.6875C13.4584 12.8736 11.6862 14.6458 9.50002 14.6458C7.31388 14.6458 5.54169 12.8736 5.54169 10.6875ZM9.50002 8.31249C8.18834 8.31249 7.12502 9.37581 7.12502 10.6875C7.12502 11.9992 8.18834 13.0625 9.50002 13.0625C10.8117 13.0625 11.875 11.9992 11.875 10.6875C11.875 9.37581 10.8117 8.31249 9.50002 8.31249Z" fill="#E94057"/>
</svg>
