<svg width="19" height="19" viewBox="0 0 19 19" fill="none" xmlns="http://www.w3.org/2000/svg">
<path fill-rule="evenodd" clip-rule="evenodd" d="M5.29725 1.11769C5.44623 0.912856 5.68422 0.791667 5.9375 0.791667H12.2708C12.5241 0.791667 12.7621 0.912859 12.9111 1.1177C12.2645 1.58793 12.2315 1.61196 12.9111 1.1177L12.913 1.12033L12.9159 1.12442L12.9249 1.13696C12.9322 1.14722 12.942 1.16131 12.9543 1.17907C12.9788 1.21458 13.0128 1.26486 13.0543 1.32883C13.1374 1.45668 13.251 1.63986 13.3796 1.86975C13.6359 2.32793 13.9564 2.98018 14.2106 3.7562C14.4568 4.50737 14.6458 5.38969 14.6458 6.33333C14.6458 7.10961 14.4804 7.85453 14.1832 8.5314C13.4319 10.243 11.8286 11.5366 9.89583 11.8179V16.625H13.0625C13.4997 16.625 13.8542 16.9794 13.8542 17.4167C13.8542 17.8539 13.4997 18.2083 13.0625 18.2083H5.14583C4.70861 18.2083 4.35417 17.8539 4.35417 17.4167C4.35417 16.9794 4.70861 16.625 5.14583 16.625H8.3125V11.8189C6.46383 11.5544 4.91052 10.3775 4.12171 8.76178C3.76331 8.02755 3.5625 7.20273 3.5625 6.33333C3.5625 5.2784 3.7988 4.29934 4.08793 3.49316C4.34001 2.79035 4.63768 2.20383 4.87244 1.79231C4.99018 1.58592 5.09308 1.42185 5.16803 1.30731C5.20553 1.25 5.23612 1.20495 5.25818 1.17308C5.26921 1.15714 5.27811 1.14448 5.28469 1.13522L5.29279 1.12387L5.29549 1.12013L5.29649 1.11875L5.29725 1.11769ZM6.36654 2.375C6.33013 2.43493 6.29021 2.5024 6.24772 2.57689C6.04681 2.92906 5.79229 3.43109 5.57832 4.02767M6.36654 2.375H11.8418C11.8887 2.45214 11.9413 2.54176 11.9978 2.64273C12.218 3.03639 12.4913 3.59382 12.706 4.24919C12.8617 4.72441 12.9839 5.2427 13.0356 5.78146C12.785 5.85682 12.4611 5.93932 12.0979 5.99667C11.2309 6.13356 10.2667 6.10764 9.51148 5.65449C8.28757 4.92014 6.87671 4.94606 5.86351 5.10604C5.64538 5.14048 5.43976 5.18207 5.25099 5.22626C5.32902 4.80374 5.44473 4.40016 5.57832 4.02767M5.54454 8.06715C5.36567 7.7007 5.24163 7.30228 5.18346 6.88199ZM5.18346 6.88199C5.43256 6.80751 5.75238 6.72654 6.11045 6.67C6.97745 6.53311 7.94159 6.55902 8.69686 7.01218C9.92076 7.74653 11.3316 7.72061 12.3448 7.56063C12.5396 7.52987 12.7245 7.49341 12.8962 7.45449C12.8507 7.60489 12.7962 7.75193 12.7334 7.89497C12.1186 9.29572 10.7182 10.2917 9.10417 10.2917C7.54126 10.2917 6.18838 9.38591 5.54454 8.06715" fill="#E94057"/>
</svg>
