<svg width="19" height="19" viewBox="0 0 19 19" fill="none" xmlns="http://www.w3.org/2000/svg">
<path fill-rule="evenodd" clip-rule="evenodd" d="M5.93748 4.35417C5.93748 2.38666 7.53246 0.791672 9.49998 0.791672C11.4675 0.791672 13.0625 2.38666 13.0625 4.35417V9.50001C13.0625 11.4675 11.4675 13.0625 9.49998 13.0625C7.53246 13.0625 5.93748 11.4675 5.93748 9.50001V4.35417ZM9.49998 2.37501C8.40691 2.37501 7.52081 3.26111 7.52081 4.35417V9.50001C7.52081 10.5931 8.40691 11.4792 9.49998 11.4792C10.593 11.4792 11.4791 10.5931 11.4791 9.50001V4.35417C11.4791 3.26111 10.593 2.37501 9.49998 2.37501ZM3.56248 8.31251C3.99971 8.31251 4.35415 8.66695 4.35415 9.10417C4.35415 11.9461 6.658 14.25 9.49998 14.25C12.342 14.25 14.6458 11.9461 14.6458 9.10417C14.6458 8.66695 15.0003 8.31251 15.4375 8.31251C15.8747 8.31251 16.2291 8.66695 16.2291 9.10417C16.2291 12.5528 13.635 15.3954 10.2916 15.7873V17.4167C10.2916 17.8539 9.93721 18.2083 9.49998 18.2083C9.06275 18.2083 8.70831 17.8539 8.70831 17.4167V15.7873C5.36496 15.3954 2.77081 12.5528 2.77081 9.10417C2.77081 8.66695 3.12525 8.31251 3.56248 8.31251Z" fill="#E94057"/>
</svg>
