<svg width="19" height="19" viewBox="0 0 19 19" fill="none" xmlns="http://www.w3.org/2000/svg">
<path fill-rule="evenodd" clip-rule="evenodd" d="M18.189 1.40955C18.285 1.83611 18.017 2.25971 17.5905 2.35568L13.4583 3.28541V8.70833H17.4167C17.8539 8.70833 18.2083 9.06277 18.2083 9.49999C18.2083 11.8409 17.5009 14.0261 16.0198 15.6342C14.5289 17.2531 12.3261 18.2083 9.50001 18.2083C6.67389 18.2083 4.47113 17.2531 2.98019 15.6342C1.49907 14.0261 0.791675 11.8409 0.791675 9.49999C0.791675 9.06277 1.14612 8.70833 1.58334 8.70833H2.37501V5.77916L1.75712 5.91818C1.33056 6.01416 0.906961 5.74617 0.810984 5.31961C0.715008 4.89305 0.983 4.46945 1.40956 4.37347L2.37501 4.15624V3.95833C2.37501 3.5211 2.72945 3.16666 3.16668 3.16666C3.55088 3.16666 3.87116 3.44035 3.94319 3.8034L5.54168 3.44374V3.16666C5.54168 2.72943 5.89612 2.37499 6.33334 2.37499C6.74414 2.37499 7.08186 2.68789 7.12118 3.08835L8.70834 2.73124V2.37499C8.70834 1.93777 9.06278 1.58333 9.50001 1.58333C9.93723 1.58333 10.2917 1.93777 10.2917 2.37499L11.875 2.01874V1.58333C11.875 1.1461 12.2294 0.79166 12.6667 0.79166C13.1039 0.79166 13.4583 1.1461 13.4583 1.58333V1.66249L17.2429 0.810969C17.6695 0.714993 18.0931 0.982985 18.189 1.40955ZM11.875 3.64166L10.2917 3.99791V8.70833H11.875V3.64166ZM2.40696 10.2917C2.54641 11.9912 3.14016 13.4707 4.14484 14.5616C5.29279 15.808 7.04836 16.625 9.50001 16.625C11.9517 16.625 13.7072 15.808 14.8552 14.5616C15.8599 13.4707 16.4536 11.9912 16.5931 10.2917H2.40696ZM3.95834 8.70833H5.54168V5.06666L3.95834 5.42291V8.70833ZM7.12501 4.71041V8.70833H8.70834V4.35416L7.12501 4.71041Z" fill="#E94057"/>
</svg>
