<svg width="19" height="19" viewBox="0 0 19 19" fill="none" xmlns="http://www.w3.org/2000/svg">
<path fill-rule="evenodd" clip-rule="evenodd" d="M14.6459 2.375C13.99 2.375 13.4584 2.90666 13.4584 3.5625C13.4584 4.21834 13.99 4.75 14.6459 4.75C15.3017 4.75 15.8334 4.21834 15.8334 3.5625C15.8334 2.90666 15.3017 2.375 14.6459 2.375ZM11.875 3.5625C11.875 2.03221 13.1156 0.791664 14.6459 0.791664C16.1761 0.791664 17.4167 2.03221 17.4167 3.5625C17.4167 5.09279 16.1761 6.33333 14.6459 6.33333C13.1156 6.33333 11.875 5.09279 11.875 3.5625ZM7.132 3.16669C7.44904 3.16949 7.73385 3.36117 7.85579 3.65384L11.0009 11.2022L11.9156 8.45798C12.0134 8.16468 12.273 7.95513 12.5803 7.92139C12.8876 7.88766 13.1865 8.03591 13.3455 8.30102L18.0955 16.2177C18.2423 16.4623 18.2461 16.7669 18.1056 17.0151C17.9651 17.2632 17.7019 17.4167 17.4167 17.4167H1.58336C1.31619 17.4167 1.06704 17.2819 0.920807 17.0583C0.774572 16.8347 0.750979 16.5525 0.858065 16.3077L6.39973 3.64102C6.52682 3.35054 6.81495 3.1639 7.132 3.16669ZM2.79383 15.8333H16.0185L12.8734 10.5916L11.8344 13.7087C11.73 14.0219 11.4422 14.2374 11.1123 14.2495C10.7823 14.2615 10.4796 14.0676 10.3526 13.7628L7.10726 5.97404L2.79383 15.8333Z" fill="#E94057"/>
</svg>
