<svg width="19" height="19" viewBox="0 0 19 19" fill="none" xmlns="http://www.w3.org/2000/svg">
<path fill-rule="evenodd" clip-rule="evenodd" d="M0.791687 9.5C0.791687 4.69052 4.69054 0.791668 9.50002 0.791668C14.3095 0.791668 18.2084 4.69052 18.2084 9.5C18.2084 9.70997 18.1249 9.91133 17.9765 10.0598L10.0598 17.9765C9.75065 18.2856 9.24939 18.2856 8.94023 17.9765L1.02356 10.0598C0.875094 9.91133 0.791687 9.70997 0.791687 9.5ZM2.58482 7.77676C2.61001 7.76189 2.63505 7.74733 2.65996 7.7331C3.12347 7.46824 3.61774 7.26894 4.10229 7.26894C4.58684 7.26894 5.08112 7.46824 5.54463 7.7331C5.87044 7.91927 6.22048 8.16104 6.59339 8.45289C7.4933 7.70309 8.46385 7.26894 9.50002 7.26894C10.5362 7.26894 11.5067 7.70309 12.4067 8.45289C12.7796 8.16104 13.1296 7.91927 13.4554 7.7331C13.9189 7.46824 14.4132 7.26894 14.8977 7.26894C15.3823 7.26894 15.8766 7.46824 16.3401 7.7331C16.365 7.74733 16.39 7.76189 16.4152 7.77677C15.6446 4.67431 12.8408 2.375 9.50002 2.375C6.1592 2.375 3.35541 4.67431 2.58482 7.77676ZM16.2343 9.56281C15.9804 9.37248 15.754 9.22182 15.5545 9.10782C15.1784 8.89288 14.973 8.85227 14.8977 8.85227C14.8225 8.85227 14.6171 8.89288 14.241 9.10782C13.9164 9.29329 13.5208 9.57582 13.0509 9.9683L11.4635 14.3336L16.2343 9.56281ZM9.50002 15.1001L11.4557 9.72195C10.7304 9.09888 10.0803 8.85227 9.50002 8.85227C8.9197 8.85227 8.26964 9.09888 7.54432 9.72195L9.50002 15.1001ZM5.94914 9.9683C5.47928 9.57582 5.08365 9.29329 4.75907 9.10782C4.38294 8.89288 4.17751 8.85227 4.10229 8.85227C4.02708 8.85227 3.82165 8.89288 3.44551 9.10782C3.24601 9.22182 3.01967 9.37248 2.76575 9.56281L7.53651 14.3336L5.94914 9.9683Z" fill="#E94057"/>
</svg>
