<svg width="19" height="19" viewBox="0 0 19 19" fill="none" xmlns="http://www.w3.org/2000/svg">
<path fill-rule="evenodd" clip-rule="evenodd" d="M0.791626 9.5C0.791626 4.69052 4.69048 0.791664 9.49996 0.791664C14.3094 0.791664 18.2083 4.69052 18.2083 9.5C18.2083 10.3668 17.7095 10.9302 17.1216 11.2708C16.5787 11.5853 15.8886 11.7579 15.2774 11.8902C15.0825 11.9324 14.8938 11.9709 14.7107 12.0083C14.2726 12.0977 13.8666 12.1805 13.484 12.2918C12.9352 12.4514 12.6206 12.623 12.4675 12.7958L11.875 12.2708L12.4675 12.7958C12.2412 13.0513 12.0961 13.4159 12.0015 13.9134C11.934 14.2684 11.9024 14.6175 11.8682 14.996C11.8524 15.171 11.8361 15.3522 11.8153 15.5432C11.7571 16.079 11.6602 16.7362 11.3351 17.2602C11.1607 17.5414 10.9178 17.7909 10.587 17.9641C10.2606 18.1349 9.89298 18.2083 9.49996 18.2083C4.69048 18.2083 0.791626 14.3095 0.791626 9.5ZM9.49996 2.375C5.56493 2.375 2.37496 5.56497 2.37496 9.5C2.37496 13.435 5.56493 16.625 9.49996 16.625C9.69674 16.625 9.80035 16.5887 9.85273 16.5613C9.90068 16.5362 9.94418 16.4988 9.98966 16.4255C10.1044 16.2405 10.1819 15.9182 10.2412 15.3722C10.2555 15.241 10.2688 15.0946 10.2829 14.939C10.3202 14.5281 10.3634 14.0523 10.446 13.6177C10.5641 12.9969 10.7835 12.309 11.2824 11.7459C11.748 11.2202 12.4355 10.9478 13.0418 10.7715C13.4909 10.6409 13.9968 10.5376 14.4592 10.4432C14.6277 10.4088 14.7903 10.3756 14.9423 10.3427C15.5619 10.2086 16.0251 10.0762 16.3279 9.90075C16.5858 9.75134 16.625 9.63976 16.625 9.5C16.625 5.56497 13.435 2.375 9.49996 2.375ZM9.10413 5.54166C9.10413 4.44858 9.99021 3.5625 11.0833 3.5625C12.1764 3.5625 13.0625 4.44858 13.0625 5.54166C13.0625 6.63475 12.1764 7.52083 11.0833 7.52083C9.99021 7.52083 9.10413 6.63475 9.10413 5.54166ZM11.0833 5.14583C10.8647 5.14583 10.6875 5.32303 10.6875 5.54166C10.6875 5.7603 10.8647 5.9375 11.0833 5.9375C11.3019 5.9375 11.4791 5.7603 11.4791 5.54166C11.4791 5.32303 11.3019 5.14583 11.0833 5.14583ZM4.35413 7.125C4.35413 6.03192 5.24021 5.14583 6.33329 5.14583C7.42638 5.14583 8.31246 6.03192 8.31246 7.125C8.31246 8.21808 7.42638 9.10416 6.33329 9.10416C5.24021 9.10416 4.35413 8.21808 4.35413 7.125ZM6.33329 6.72916C6.11466 6.72916 5.93746 6.90637 5.93746 7.125C5.93746 7.34363 6.11466 7.52083 6.33329 7.52083C6.55192 7.52083 6.72913 7.34363 6.72913 7.125C6.72913 6.90637 6.55192 6.72916 6.33329 6.72916ZM4.74996 12.2708C4.74996 11.1778 5.63604 10.2917 6.72913 10.2917C7.82221 10.2917 8.70829 11.1778 8.70829 12.2708C8.70829 13.3639 7.82221 14.25 6.72913 14.25C5.63604 14.25 4.74996 13.3639 4.74996 12.2708ZM6.72913 11.875C6.5105 11.875 6.33329 12.0522 6.33329 12.2708C6.33329 12.4895 6.5105 12.6667 6.72913 12.6667C6.94776 12.6667 7.12496 12.4895 7.12496 12.2708C7.12496 12.0522 6.94776 11.875 6.72913 11.875Z" fill="white"/>
</svg>
