<svg width="19" height="19" viewBox="0 0 19 19" fill="none" xmlns="http://www.w3.org/2000/svg">
<path fill-rule="evenodd" clip-rule="evenodd" d="M16.7193 0.961643C16.9098 1.11176 17.0209 1.34086 17.0209 1.58333V4.78334C17.0211 4.79458 17.0211 4.80579 17.0209 4.81696V13.6167C17.0209 14.8409 16.0284 15.8333 14.8042 15.8333H13.2605C12.0581 15.8333 11.0834 14.8586 11.0834 13.6563C11.0834 12.4539 12.0581 11.4792 13.2605 11.4792H15.4375V5.80047L7.12504 7.76854V15.2C7.12504 16.4242 6.13259 17.4167 4.90837 17.4167H3.76046C2.55809 17.4167 1.58337 16.442 1.58337 15.2396C1.58337 14.0372 2.55809 13.0625 3.76046 13.0625H5.54171V7.15854C5.54147 7.14732 5.54147 7.13612 5.54171 7.12496V3.95833C5.54171 3.59228 5.79267 3.27396 6.14862 3.18853L16.0445 0.813528C16.2802 0.756941 16.5289 0.811524 16.7193 0.961643ZM7.12504 6.14143L15.4375 4.17336V2.58748L7.12504 4.58248V6.14143ZM5.54171 14.6458H3.76046C3.43254 14.6458 3.16671 14.9117 3.16671 15.2396C3.16671 15.5675 3.43254 15.8333 3.76046 15.8333H4.90837C5.25814 15.8333 5.54171 15.5498 5.54171 15.2V14.6458ZM15.4375 13.0625H13.2605C12.9325 13.0625 12.6667 13.3283 12.6667 13.6563C12.6667 13.9842 12.9325 14.25 13.2605 14.25H14.8042C15.154 14.25 15.4375 13.9664 15.4375 13.6167V13.0625Z" fill="white"/>
</svg>
