<svg width="19" height="19" viewBox="0 0 19 19" fill="none" xmlns="http://www.w3.org/2000/svg">
<path fill-rule="evenodd" clip-rule="evenodd" d="M14.6458 2.375C13.99 2.375 13.4583 2.90666 13.4583 3.5625C13.4583 4.21834 13.99 4.75 14.6458 4.75C15.3016 4.75 15.8333 4.21834 15.8333 3.5625C15.8333 2.90666 15.3016 2.375 14.6458 2.375ZM11.875 3.5625C11.875 2.03221 13.1155 0.791664 14.6458 0.791664C16.1761 0.791664 17.4166 2.03221 17.4166 3.5625C17.4166 5.09279 16.1761 6.33333 14.6458 6.33333C13.1155 6.33333 11.875 5.09279 11.875 3.5625ZM7.13194 3.16669C7.44898 3.16949 7.73378 3.36117 7.85573 3.65384L11.0009 11.2022L11.9156 8.45798C12.0134 8.16468 12.2729 7.95513 12.5802 7.92139C12.8876 7.88766 13.1864 8.03591 13.3455 8.30102L18.0955 16.2177C18.2422 16.4623 18.2461 16.7669 18.1055 17.0151C17.965 17.2632 17.7018 17.4167 17.4166 17.4167H1.5833C1.31613 17.4167 1.06698 17.2819 0.920746 17.0583C0.774511 16.8347 0.750918 16.5525 0.858004 16.3077L6.39967 3.64102C6.52675 3.35054 6.81489 3.1639 7.13194 3.16669ZM2.79377 15.8333H16.0184L12.8734 10.5916L11.8343 13.7087C11.7299 14.0219 11.4421 14.2374 11.1122 14.2495C10.7823 14.2615 10.4795 14.0676 10.3525 13.7628L7.1072 5.97404L2.79377 15.8333Z" fill="white"/>
</svg>
