<svg width="19" height="19" viewBox="0 0 19 19" fill="none" xmlns="http://www.w3.org/2000/svg">
<path fill-rule="evenodd" clip-rule="evenodd" d="M0.791626 9.5C0.791626 4.69052 4.69048 0.791666 9.49996 0.791666C14.3094 0.791666 18.2083 4.69052 18.2083 9.5C18.2083 9.70996 18.1249 9.91133 17.9764 10.0598L10.0598 17.9765C9.75059 18.2856 9.24933 18.2856 8.94017 17.9765L1.0235 10.0598C0.875033 9.91133 0.791626 9.70996 0.791626 9.5ZM2.58476 7.77676C2.60995 7.76188 2.63499 7.74733 2.6599 7.73309C3.12341 7.46823 3.61768 7.26894 4.10223 7.26894C4.58678 7.26894 5.08106 7.46823 5.54457 7.73309C5.87038 7.91927 6.22042 8.16104 6.59332 8.45289C7.49324 7.70309 8.46379 7.26894 9.49996 7.26894C10.5361 7.26894 11.5067 7.70309 12.4066 8.45289C12.7795 8.16104 13.1295 7.91927 13.4554 7.73309C13.9189 7.46823 14.4131 7.26894 14.8977 7.26894C15.3822 7.26894 15.8765 7.46823 16.34 7.73309C16.3649 7.74733 16.39 7.76189 16.4152 7.77677C15.6446 4.67431 12.8408 2.375 9.49996 2.375C6.15914 2.375 3.35535 4.67431 2.58476 7.77676ZM16.2342 9.56281C15.9803 9.37248 15.754 9.22181 15.5545 9.10781C15.1783 8.89288 14.9729 8.85227 14.8977 8.85227C14.8225 8.85227 14.617 8.89288 14.2409 9.10781C13.9163 9.29329 13.5207 9.57582 13.0508 9.9683L11.4635 14.3336L16.2342 9.56281ZM9.49996 15.1001L11.4557 9.72195C10.7303 9.09888 10.0803 8.85227 9.49996 8.85227C8.91964 8.85227 8.26958 9.09888 7.54426 9.72195L9.49996 15.1001ZM5.94908 9.9683C5.47922 9.57582 5.08359 9.29329 4.75901 9.10781C4.38288 8.89288 4.17745 8.85227 4.10223 8.85227C4.02702 8.85227 3.82159 8.89288 3.44545 9.10781C3.24595 9.22181 3.01961 9.37248 2.76569 9.56281L7.53645 14.3336L5.94908 9.9683Z" fill="white"/>
</svg>
