<svg width="19" height="19" viewBox="0 0 19 19" fill="none" xmlns="http://www.w3.org/2000/svg">
<path d="M5.54162 12.2708C6.59218 12.2708 7.39658 12.464 8.62597 12.9855L9.0786 13.1833L9.57309 13.4098L10.3003 13.7497L10.719 13.9383C10.7855 13.9676 10.8504 13.9958 10.9139 14.0229L11.2779 14.1736C12.1489 14.5202 12.744 14.6458 13.4583 14.6458C14.209 14.6458 15.0436 14.4455 15.8856 14.1087C16.1859 13.9886 16.465 13.8598 16.7144 13.7315L16.9271 13.6183L17.0093 13.5712C17.3842 13.3462 17.8705 13.4678 18.0955 13.8427C18.3204 14.2176 18.1988 14.7039 17.8239 14.9289L17.6093 15.0512L17.3427 15.1903C17.1 15.3117 16.807 15.4455 16.4737 15.5788C15.4602 15.9842 14.4394 16.2292 13.4583 16.2292C12.4077 16.2292 11.6033 16.036 10.3739 15.5145L9.92131 15.3167L9.42682 15.0902L8.69961 14.7503L8.28087 14.5617C8.21439 14.5324 8.14949 14.5042 8.08605 14.4771L7.72199 14.3264C6.85099 13.9798 6.25593 13.8542 5.54162 13.8542C4.79095 13.8542 3.95634 14.0545 3.11429 14.3913C2.81398 14.5114 2.53491 14.6402 2.28553 14.7685L2.07285 14.8817L1.9906 14.9289C1.61568 15.1538 1.12939 15.0322 0.904442 14.6573C0.679491 14.2824 0.801063 13.7961 1.17598 13.5712L1.39059 13.4488L1.65719 13.3097C1.89996 13.1883 2.19294 13.0545 2.52625 12.9212C3.53967 12.5158 4.56053 12.2708 5.54162 12.2708Z" fill="white"/>
<path d="M5.54162 7.52084C6.59218 7.52084 7.39658 7.71403 8.62597 8.23546L9.0786 8.43335L9.57309 8.65981L10.3003 8.99973L10.719 9.18831C10.7855 9.21756 10.8504 9.24576 10.9139 9.27291L11.2779 9.42358C12.1489 9.77022 12.744 9.89584 13.4583 9.89584C14.209 9.89584 15.0436 9.69553 15.8856 9.35871C16.1859 9.23859 16.465 9.10978 16.7144 8.98153L16.9271 8.86828L17.0093 8.82115C17.3842 8.5962 17.8705 8.71778 18.0955 9.09269C18.3204 9.46761 18.1988 9.9539 17.8239 10.1789L17.6093 10.3012L17.3427 10.4403C17.1 10.5617 16.807 10.6955 16.4737 10.8288C15.4602 11.2342 14.4394 11.4792 13.4583 11.4792C12.4077 11.4792 11.6033 11.286 10.3739 10.7645L9.92131 10.5667L9.42682 10.3402L8.69961 10.0003L8.28087 9.8117C8.21439 9.78244 8.14949 9.75425 8.08605 9.7271L7.72199 9.57642C6.85099 9.22978 6.25593 9.10417 5.54162 9.10417C4.79095 9.10417 3.95634 9.30448 3.11429 9.6413C2.81398 9.76142 2.53491 9.89022 2.28553 10.0185L2.07285 10.1317L1.9906 10.1789C1.61568 10.4038 1.12939 10.2822 0.904442 9.90731C0.679491 9.53239 0.801063 9.0461 1.17598 8.82115L1.39059 8.69878L1.65719 8.55974C1.89996 8.43828 2.19294 8.30453 2.52625 8.17121C3.53967 7.76584 4.56053 7.52084 5.54162 7.52084Z" fill="white"/>
<path d="M5.54162 2.77084C6.59218 2.77084 7.39658 2.96403 8.62597 3.48546L9.0786 3.68335L9.57309 3.90981L10.3003 4.24973L10.719 4.43831C10.7855 4.46757 10.8504 4.49576 10.9139 4.52291L11.2779 4.67358C12.1489 5.02022 12.744 5.14584 13.4583 5.14584C14.209 5.14584 15.0436 4.94553 15.8856 4.60871C16.1859 4.48859 16.465 4.35978 16.7144 4.23153L16.9271 4.11828L17.0093 4.07115C17.3842 3.8462 17.8705 3.96778 18.0955 4.34269C18.3204 4.71761 18.1988 5.2039 17.8239 5.42885L17.6093 5.55122L17.3427 5.69027C17.1 5.81173 16.807 5.94547 16.4737 6.0788C15.4602 6.48416 14.4394 6.72917 13.4583 6.72917C12.4077 6.72917 11.6033 6.53598 10.3739 6.01454L9.92131 5.81666L9.42682 5.59019L8.69961 5.25028L8.28087 5.0617C8.21439 5.03244 8.14949 5.00425 8.08605 4.9771L7.72199 4.82642C6.85099 4.47978 6.25593 4.35417 5.54162 4.35417C4.79095 4.35417 3.95634 4.55448 3.11429 4.8913C2.81398 5.01142 2.53491 5.14022 2.28553 5.26848L2.07285 5.38173L1.9906 5.42885C1.61568 5.6538 1.12939 5.53223 0.904442 5.15731C0.679491 4.78239 0.801063 4.2961 1.17598 4.07115L1.39059 3.94878L1.65719 3.80974C1.89996 3.68828 2.19294 3.55453 2.52625 3.42121C3.53967 3.01584 4.56053 2.77084 5.54162 2.77084Z" fill="white"/>
</svg>
