<svg width="19" height="19" viewBox="0 0 19 19" fill="none" xmlns="http://www.w3.org/2000/svg">
<path d="M6.33329 9.5C6.77052 9.5 7.12496 9.85444 7.12496 10.2917V11.0833H7.91663C8.35385 11.0833 8.70829 11.4378 8.70829 11.875C8.70829 12.3122 8.35385 12.6667 7.91663 12.6667H7.12496V13.4583C7.12496 13.8956 6.77052 14.25 6.33329 14.25C5.89607 14.25 5.54163 13.8956 5.54163 13.4583V12.6667H4.74996C4.31273 12.6667 3.95829 12.3122 3.95829 11.875C3.95829 11.4378 4.31273 11.0833 4.74996 11.0833H5.54163V10.2917C5.54163 9.85444 5.89607 9.5 6.33329 9.5Z" fill="white"/>
<path fill-rule="evenodd" clip-rule="evenodd" d="M12.6666 9.5C11.355 9.5 10.2916 10.5633 10.2916 11.875C10.2916 13.1867 11.355 14.25 12.6666 14.25C13.9783 14.25 15.0416 13.1867 15.0416 11.875C15.0416 10.5633 13.9783 9.5 12.6666 9.5ZM11.875 11.875C11.875 11.4378 12.2294 11.0833 12.6666 11.0833C13.1039 11.0833 13.4583 11.4378 13.4583 11.875C13.4583 12.3122 13.1039 12.6667 12.6666 12.6667C12.2294 12.6667 11.875 12.3122 11.875 11.875Z" fill="white"/>
<path fill-rule="evenodd" clip-rule="evenodd" d="M12.6666 0.791667C13.1039 0.791667 13.4583 1.14611 13.4583 1.58333V3.84524C13.4583 4.28246 13.1039 4.63691 12.6666 4.63691H10.2916V6.33333H12.6666C15.7272 6.33333 18.2083 8.81442 18.2083 11.875C18.2083 14.9356 15.7272 17.4167 12.6666 17.4167H6.33329C3.27271 17.4167 0.791626 14.9356 0.791626 11.875C0.791626 8.81442 3.27271 6.33333 6.33329 6.33333H8.70829V3.84524C8.70829 3.40801 9.06273 3.05357 9.49996 3.05357H11.875V1.58333C11.875 1.14611 12.2294 0.791667 12.6666 0.791667ZM6.33329 7.91667C4.14717 7.91667 2.37496 9.68887 2.37496 11.875C2.37496 14.0611 4.14717 15.8333 6.33329 15.8333H12.6666C14.8528 15.8333 16.625 14.0611 16.625 11.875C16.625 9.68887 14.8528 7.91667 12.6666 7.91667H6.33329Z" fill="white"/>
</svg>
