<svg width="19" height="19" viewBox="0 0 19 19" fill="none" xmlns="http://www.w3.org/2000/svg">
<path fill-rule="evenodd" clip-rule="evenodd" d="M9.5 2.37501C8.40693 2.37501 7.52083 3.26111 7.52083 4.35417V4.75001H11.4792V4.35417C11.4792 3.26111 10.5931 2.37501 9.5 2.37501ZM13.0625 4.75001V4.35417C13.0625 2.38666 11.4675 0.791672 9.5 0.791672C7.53248 0.791672 5.9375 2.38666 5.9375 4.35417V4.75001H3.95833C3.08388 4.75001 2.375 5.45889 2.375 6.33334V16.625C2.375 17.4995 3.08388 18.2083 3.95833 18.2083H15.0417C15.9161 18.2083 16.625 17.4995 16.625 16.625V6.33334C16.625 5.45889 15.9161 4.75001 15.0417 4.75001H13.0625ZM11.4792 6.33334V7.12501C11.4792 7.56223 11.8336 7.91667 12.2708 7.91667C12.7081 7.91667 13.0625 7.56223 13.0625 7.12501V6.33334H15.0417V16.625H3.95833V6.33334H5.9375V7.12501C5.9375 7.56223 6.29194 7.91667 6.72917 7.91667C7.16639 7.91667 7.52083 7.56223 7.52083 7.12501V6.33334H11.4792Z" fill="white"/>
</svg>
