<svg width="19" height="19" viewBox="0 0 19 19" fill="none" xmlns="http://www.w3.org/2000/svg">
<path fill-rule="evenodd" clip-rule="evenodd" d="M9.49996 0.791672C4.69048 0.791672 0.791626 4.69052 0.791626 9.50001C0.791626 14.3095 4.69048 18.2083 9.49996 18.2083C14.3094 18.2083 18.2083 14.3095 18.2083 9.50001C18.2083 4.69052 14.3094 0.791672 9.49996 0.791672ZM12.0367 12.128C13.1158 11.1146 14.6288 10.3287 16.5835 10.2736C16.2266 13.5792 13.6088 16.2072 10.3079 16.5797C10.413 14.5229 11.0248 13.0783 12.0367 12.128ZM8.72274 16.5831C8.82984 14.2145 9.53641 12.304 10.9528 10.9738C12.2953 9.71298 14.1853 8.74645 16.5794 8.68972C16.2053 5.38514 13.5707 2.76573 10.2591 2.41497C10.1048 4.78562 9.42694 6.7047 8.12927 8.06833C6.80984 9.45473 4.85989 10.1487 2.41652 10.2741C2.77472 13.5897 5.40754 16.2234 8.72274 16.5831ZM8.67163 2.42264C8.51989 4.49977 7.92627 5.98487 6.98229 6.97682C6.05193 7.95441 4.57547 8.56474 2.42069 8.68833C2.79274 5.40744 5.39304 2.80223 8.67163 2.42264Z" fill="white"/>
</svg>
